<svg width="322" height="100" viewBox="0 0 322 100" fill="none" xmlns="http://www.w3.org/2000/svg">
<path fill-rule="evenodd" clip-rule="evenodd" d="M81.5784 66.3694C83.8985 61.9303 85.2865 56.9164 85.5245 51.6053V51.5854H100C99.7422 59.5323 97.6403 67.0036 94.1106 73.6029C93.6149 74.5541 93.0597 75.4658 92.5045 76.3774C88.4394 82.8974 82.907 88.4265 76.3831 92.4891C75.4709 93.044 74.5588 93.5791 73.607 94.0944C67.0236 97.6219 59.5479 99.7226 51.5963 99.9802C51.061 100 50.5257 100 49.9904 100H49.9901C49.7224 100 49.4547 99.9951 49.187 99.9901C48.9193 99.9852 48.6516 99.9802 48.3839 99.9802C40.4323 99.7424 32.9566 97.6219 26.3732 94.0944C25.4214 93.5791 24.5092 93.044 23.5971 92.4891C17.0732 88.4265 11.5606 82.8974 7.49554 76.3774C6.94031 75.4658 6.40492 74.5541 5.88935 73.6029C2.35971 67.0234 0.257783 59.5522 0 51.6053H14.4755C14.7135 56.9164 16.1015 61.9105 18.4216 66.3694C18.9173 67.3207 19.4527 68.2521 20.0278 69.1439C22.8039 73.484 26.4922 77.1899 30.8348 79.9644C31.7271 80.5391 32.6591 81.0742 33.6109 81.5696C38.0726 83.8684 43.0696 85.2755 48.3839 85.5133C48.9192 85.5529 49.4545 85.5529 49.9898 85.5529H49.9901C50.5255 85.5529 51.0609 85.5331 51.5963 85.5133C56.9106 85.2953 61.9076 83.8883 66.3692 81.5696C67.321 81.0742 68.253 80.5391 69.1453 79.9644C73.488 77.1701 77.1961 73.484 79.9722 69.1439C80.5473 68.2521 81.0827 67.3207 81.5784 66.3694ZM63.0379 65.6755C63.0379 72.8892 57.208 78.7156 50.0099 78.7156C42.8118 78.7156 36.9819 72.8693 36.9819 65.6755C36.9819 58.4817 42.8118 52.6355 50.0099 52.6355C57.208 52.6355 63.0379 58.4619 63.0379 65.6755Z" fill="#232323"/>
<path fill-rule="evenodd" clip-rule="evenodd" d="M69.1455 20.0157L76.3833 7.49097C82.927 11.5536 88.4396 17.0827 92.5046 23.6027L79.9724 30.8362C77.1764 26.4961 73.4882 22.7902 69.1455 20.0157ZM81.5786 33.6108L94.1108 26.3773V26.3575C97.6405 32.9568 99.7424 40.4281 100 48.375H85.5247C85.2867 43.0638 83.8987 38.0698 81.5786 33.6108Z" fill="#C83E35"/>
<path fill-rule="evenodd" clip-rule="evenodd" d="M48.3838 0V14.4471C43.0695 14.6849 38.0724 16.092 33.6108 18.4106L26.373 5.88585C32.9564 2.3583 40.4321 0.25763 48.3838 0ZM51.5962 14.4669V0C59.528 0.25763 67.0235 2.3583 73.6069 5.88585L66.3691 18.4106C61.9075 16.092 56.9105 14.7047 51.5962 14.4669Z" fill="#FDC21A"/>
<path fill-rule="evenodd" clip-rule="evenodd" d="M23.5971 7.49097L30.8349 20.0157C26.5121 22.81 22.804 26.4961 20.0278 30.8362L7.49561 23.6027C11.5408 17.0629 17.0732 11.5536 23.5971 7.49097ZM5.88935 26.0052L18.4216 33.2386V33.2584C16.1015 37.6976 14.7135 42.7115 14.4755 48.0226H0C0.257783 40.0757 2.35971 32.6044 5.88935 26.0052Z" fill="#232323"/>
<path fill-rule="evenodd" clip-rule="evenodd" d="M124 54.5237V15.4763H132.819V30.4662H149.694V15.4763H158.503V54.5237H149.694V38.4824H132.819V54.5237H124ZM164.167 54.5238V15.4764H178.883C182.889 15.4764 186.464 16.1683 189.601 17.5523C192.729 18.9362 195.193 21.0841 196.986 23.9958C198.778 26.9075 199.674 30.637 199.674 35.2023C199.674 39.4979 198.769 43.0746 196.959 45.9414C195.148 48.8082 192.675 50.956 189.547 52.3849C186.411 53.8048 182.844 54.5238 178.838 54.5238H164.185H164.167ZM172.986 46.6783H178.354C182.243 46.6783 185.246 45.6448 187.343 43.5779C189.449 41.5109 190.497 38.6981 190.497 35.1483C190.497 31.5986 189.52 28.6779 187.576 26.512C185.631 24.3462 182.557 23.2678 178.354 23.2678H172.986V46.6783ZM213.215 15.4764L198.679 54.5238H198.688H207.91L210.885 45.564H224.606L227.581 54.5238H237.215L222.966 15.4764H213.215ZM222.491 38.7161H212.92H212.911L217.759 23.9598L222.491 38.7161Z" fill="#232323"/>
<path fill-rule="evenodd" clip-rule="evenodd" d="M124 81.6878V66.5238H125.979V72.6816C126.159 72.4255 126.389 72.159 126.678 71.8721C126.968 71.5955 127.338 71.3496 127.788 71.1549C128.237 70.9602 128.787 70.8578 129.417 70.8578C130.766 70.8578 131.765 71.2676 132.415 72.0771C133.064 72.8865 133.394 73.9726 133.394 75.3353V81.6775H131.395V75.489C131.395 74.5054 131.186 73.7779 130.766 73.3169C130.346 72.8558 129.766 72.6201 129.027 72.6201C128.287 72.6201 127.678 72.825 127.228 73.2246C126.788 73.6242 126.469 74.1468 126.289 74.782C126.109 75.4173 126.009 76.073 126.009 76.7595V81.6672H124.01L124 81.6878ZM146.596 80.1405L145.467 78.911H145.437C145.197 79.2081 144.797 79.5053 144.227 79.8024C143.658 80.0995 142.938 80.2532 142.069 80.2532C141.479 80.2532 140.93 80.1098 140.42 79.8332C139.91 79.5565 139.5 79.1672 139.191 78.6754C138.881 78.1836 138.721 77.6303 138.701 77.0053H146.846C146.846 75.9295 146.676 74.9254 146.336 73.9827C145.996 73.0401 145.457 72.2819 144.717 71.6877C143.978 71.0934 143.008 70.7963 141.809 70.7963C140.81 70.7963 139.92 71.0422 139.141 71.534C138.361 72.0258 137.762 72.6918 137.322 73.5217C136.892 74.3619 136.672 75.2942 136.672 76.3188C136.672 77.4459 136.902 78.4295 137.352 79.2901C137.802 80.1405 138.441 80.8065 139.251 81.2881C140.06 81.7696 140.999 82.0053 142.069 82.0053C142.938 82.0053 143.688 81.8926 144.297 81.6569C144.907 81.4213 145.407 81.1549 145.796 80.8578C146.186 80.5606 146.446 80.325 146.596 80.1405ZM138.702 75.4787H144.767C144.707 74.659 144.427 73.9623 143.928 73.3885C143.428 72.8147 142.718 72.5278 141.799 72.5278C141.159 72.5278 140.62 72.6713 140.16 72.9581C139.7 73.245 139.351 73.6139 139.111 74.0647C138.872 74.5125 138.733 74.9804 138.702 75.4787ZM156.719 81.6877L156.669 80.4172C156.299 80.9295 155.79 81.3188 155.15 81.5852C154.51 81.8516 153.861 81.9848 153.211 81.9848C152.652 81.9848 152.092 81.8823 151.532 81.6671C150.983 81.452 150.523 81.1037 150.153 80.6221C149.794 80.1405 149.614 79.495 149.614 78.6856C149.614 77.5483 150.003 76.6364 150.793 75.9602C151.572 75.2737 152.692 74.9356 154.141 74.9356C154.47 74.9356 154.8 74.9458 155.15 74.9663C155.5 74.9868 155.81 75.0073 156.089 75.0381C156.193 75.0494 156.284 75.058 156.362 75.0653C156.494 75.0778 156.589 75.0866 156.639 75.0995V74.7102C156.639 73.9213 156.409 73.3577 155.939 73.0196C155.47 72.6815 154.84 72.5073 154.041 72.5073C153.241 72.5073 152.652 72.62 152.192 72.8352C151.732 73.0503 151.343 73.2758 151.023 73.5012L150.093 72.1179C150.463 71.8208 150.973 71.5237 151.622 71.2368C152.272 70.9499 153.151 70.8065 154.261 70.8065C155.58 70.8065 156.619 71.1344 157.389 71.7901C158.158 72.4459 158.538 73.3885 158.538 74.5975V81.1446C158.538 81.2983 158.538 81.4827 158.558 81.6877H156.719ZM156.649 77.866V76.6774C156.579 76.6467 156.409 76.616 156.139 76.5955L155.96 76.582C155.738 76.5656 155.498 76.5478 155.24 76.5237C154.91 76.5032 154.59 76.493 154.271 76.493C153.531 76.493 152.961 76.6057 152.572 76.8208C152.182 77.036 151.912 77.3126 151.772 77.6405C151.632 77.9684 151.562 78.286 151.562 78.6036C151.562 79.1672 151.752 79.5975 152.142 79.8946C152.522 80.202 153.061 80.3454 153.741 80.3454C154.261 80.3454 154.73 80.2327 155.17 79.9971C155.61 79.7614 155.959 79.4541 156.239 79.075C156.509 78.6959 156.649 78.2963 156.649 77.866ZM162.395 66.5238H164.394V81.6878H162.395V66.5238ZM169.13 78.2246V72.8148H167.272V71.1139H169.13V67.661H171.129V71.1139H174.147V72.8148H171.129V78.0196C171.129 78.8701 171.259 79.4541 171.519 79.7717C171.779 80.0893 172.139 80.2533 172.618 80.2533C172.998 80.2533 173.328 80.1918 173.588 80.0688C173.847 79.9459 174.097 79.7615 174.327 79.5258L175.236 80.7758C174.807 81.1959 174.367 81.5033 173.917 81.698C173.468 81.8824 172.928 81.9848 172.308 81.9848C171.229 81.9848 170.43 81.6775 169.91 81.0627C169.39 80.448 169.13 79.5053 169.13 78.2348V78.2246ZM177.865 66.5238V81.6878L177.875 81.6672H179.873V76.7595C179.873 76.073 179.973 75.4173 180.153 74.782C180.333 74.1468 180.653 73.6242 181.093 73.2246C181.542 72.825 182.152 72.6201 182.891 72.6201C183.631 72.6201 184.21 72.8558 184.63 73.3169C185.05 73.7779 185.26 74.5054 185.26 75.489V81.6775H187.258V75.3353C187.258 73.9726 186.929 72.8865 186.279 72.0771C185.63 71.2676 184.63 70.8578 183.281 70.8578C182.641 70.8578 182.102 70.9602 181.652 71.1549C181.202 71.3496 180.833 71.5955 180.543 71.8721C180.253 72.159 180.023 72.4255 179.843 72.6816V66.5238H177.865ZM203.708 81.6877L203.638 80.3455C203.538 80.4685 203.348 80.6632 203.069 80.9398C202.799 81.2164 202.429 81.4623 201.969 81.6775C201.51 81.8926 200.95 82.0054 200.28 82.0054C199.411 82.0054 198.622 81.7799 197.932 81.3393C197.232 80.8885 196.693 80.2635 196.293 79.4439C195.893 78.6242 195.693 77.6611 195.693 76.5545C195.693 75.5504 195.863 74.6897 196.193 73.9725C196.523 73.2553 196.963 72.6611 197.492 72.2103C198.022 71.7594 198.602 71.4213 199.211 71.1959C199.821 70.9808 200.41 70.868 200.95 70.868C201.49 70.868 201.999 70.9295 202.399 71.0525C202.809 71.1754 203.218 71.3393 203.628 71.5545V66.534H205.627V81.0525C205.627 81.2677 205.627 81.4931 205.647 81.698H203.698L203.708 81.6877ZM203.638 77.2308V73.4602C203.368 73.2348 203.029 73.0401 202.619 72.8865C202.209 72.7328 201.7 72.6611 201.11 72.6611C200.151 72.6611 199.341 73.0095 198.701 73.7062C198.062 74.4029 197.732 75.3558 197.732 76.575C197.732 77.241 197.842 77.8558 198.052 78.4193C198.262 78.9828 198.592 79.4234 199.041 79.7512C199.481 80.0791 200.051 80.2431 200.73 80.2431C201.41 80.2431 201.979 80.0791 202.409 79.7512C202.829 79.4234 203.139 79.0238 203.338 78.5525C203.538 78.0812 203.638 77.6406 203.638 77.2308ZM215.99 80.4172L216.04 81.6877H217.879C217.859 81.4831 217.859 81.299 217.859 81.1455V81.1446V74.5975C217.859 73.3885 217.479 72.4459 216.71 71.7901C215.94 71.1344 214.901 70.8065 213.582 70.8065C212.472 70.8065 211.593 70.9499 210.943 71.2368C210.294 71.5237 209.784 71.8208 209.414 72.1179L210.344 73.5012C210.664 73.2758 211.053 73.0503 211.513 72.8352C211.973 72.62 212.562 72.5073 213.362 72.5073C214.161 72.5073 214.791 72.6815 215.261 73.0196C215.73 73.3577 215.96 73.9213 215.96 74.7102V75.0995C215.91 75.0866 215.815 75.0778 215.683 75.0653C215.605 75.058 215.514 75.0494 215.41 75.0381C215.131 75.0073 214.821 74.9868 214.471 74.9663C214.121 74.9458 213.792 74.9356 213.462 74.9356C212.013 74.9356 210.893 75.2737 210.114 75.9602C209.324 76.6364 208.935 77.5483 208.935 78.6856C208.935 79.495 209.115 80.1405 209.474 80.6221C209.844 81.1037 210.304 81.452 210.853 81.6671C211.413 81.8823 211.973 81.9848 212.532 81.9848C213.182 81.9848 213.831 81.8516 214.471 81.5852C215.111 81.3188 215.62 80.9295 215.99 80.4172ZM215.97 76.6774V77.866C215.97 78.2963 215.83 78.6959 215.56 79.075C215.281 79.4541 214.931 79.7614 214.491 79.9971C214.051 80.2327 213.582 80.3454 213.062 80.3454C212.382 80.3454 211.843 80.202 211.463 79.8946C211.073 79.5975 210.883 79.1672 210.883 78.6036C210.883 78.286 210.953 77.9684 211.093 77.6405C211.233 77.3126 211.503 77.036 211.893 76.8208C212.283 76.6057 212.852 76.493 213.592 76.493C213.911 76.493 214.231 76.5032 214.561 76.5237C214.819 76.5478 215.059 76.5656 215.281 76.582L215.46 76.5955C215.73 76.616 215.9 76.6467 215.97 76.6774ZM222.626 78.2246V72.8148H220.767V71.1139H222.626V67.661H224.624V71.1139H227.642V72.8148H224.624V78.0196C224.624 78.8701 224.754 79.4541 225.014 79.7717C225.274 80.0893 225.634 80.2533 226.113 80.2533C226.493 80.2533 226.823 80.1918 227.083 80.0688C227.343 79.9459 227.592 79.7615 227.822 79.5258L228.732 80.7758C228.302 81.1959 227.862 81.5033 227.413 81.698C226.963 81.8824 226.423 81.9848 225.804 81.9848C224.724 81.9848 223.925 81.6775 223.405 81.0627C222.886 80.448 222.626 79.5053 222.626 78.2348V78.2246ZM237.845 80.4172L237.885 81.6877H239.744C239.724 81.4831 239.724 81.299 239.724 81.1455V81.1446V74.5975C239.724 73.3885 239.344 72.4459 238.575 71.7901C237.805 71.1344 236.766 70.8065 235.447 70.8065C234.337 70.8065 233.458 70.9499 232.808 71.2368C232.159 71.5237 231.649 71.8208 231.279 72.1179L232.209 73.5012C232.519 73.2758 232.908 73.0503 233.368 72.8352C233.828 72.62 234.417 72.5073 235.217 72.5073C236.016 72.5073 236.646 72.6815 237.115 73.0196C237.585 73.3577 237.815 73.9213 237.815 74.7102V75.0995C237.735 75.079 237.545 75.0586 237.265 75.0381C236.986 75.0073 236.676 74.9868 236.326 74.9663C235.976 74.9458 235.636 74.9356 235.317 74.9356C233.868 74.9356 232.748 75.2737 231.969 75.9602C231.179 76.6364 230.79 77.5483 230.79 78.6856C230.79 79.495 230.97 80.1405 231.329 80.6221C231.699 81.1037 232.159 81.452 232.708 81.6671C233.268 81.8823 233.828 81.9848 234.387 81.9848C235.037 81.9848 235.686 81.8516 236.326 81.5852C236.966 81.3188 237.475 80.9295 237.845 80.4172ZM237.815 76.6774V77.8864L237.825 77.866C237.825 78.2963 237.685 78.6959 237.415 79.075C237.135 79.4541 236.786 79.7614 236.346 79.9971C235.916 80.2327 235.437 80.3454 234.917 80.3454C234.237 80.3454 233.708 80.202 233.318 79.8946C232.928 79.5975 232.738 79.1672 232.738 78.6036C232.738 78.286 232.808 77.9684 232.948 77.6405C233.088 77.3126 233.358 77.036 233.748 76.8208C234.137 76.6057 234.707 76.493 235.447 76.493C235.756 76.493 236.076 76.5032 236.406 76.5237C236.664 76.5478 236.904 76.5656 237.126 76.5821L237.305 76.5955C237.575 76.616 237.745 76.6467 237.815 76.6774ZM255.224 81.6877L255.174 80.4172C254.805 80.9295 254.295 81.3188 253.655 81.5852C253.016 81.8516 252.366 81.9848 251.717 81.9848C251.157 81.9848 250.597 81.8823 250.038 81.6671C249.488 81.452 249.028 81.1037 248.659 80.6221C248.299 80.1405 248.119 79.495 248.119 78.6856C248.119 77.5483 248.509 76.6364 249.298 75.9602C250.078 75.2737 251.197 74.9356 252.646 74.9356C252.976 74.9356 253.306 74.9458 253.655 74.9663C254.005 74.9868 254.315 75.0073 254.595 75.0381C254.698 75.0494 254.789 75.058 254.867 75.0653C255 75.0778 255.094 75.0866 255.144 75.0995V74.7102C255.144 73.9213 254.915 73.3577 254.445 73.0196C253.975 72.6815 253.346 72.5073 252.546 72.5073C251.747 72.5073 251.157 72.62 250.697 72.8352C250.238 73.0503 249.848 73.2758 249.528 73.5012L248.599 72.1179C248.968 71.8208 249.478 71.5237 250.128 71.2368C250.777 70.9499 251.657 70.8065 252.766 70.8065C254.085 70.8065 255.124 71.1344 255.894 71.7901C256.663 72.4459 257.043 73.3885 257.043 74.5975V81.1446C257.043 81.2983 257.043 81.4827 257.063 81.6877H255.224ZM255.154 77.866V76.6774C255.084 76.6467 254.915 76.616 254.645 76.5955L254.465 76.582C254.244 76.5656 254.004 76.5478 253.745 76.5237C253.416 76.5032 253.096 76.493 252.776 76.493C252.036 76.493 251.467 76.6057 251.077 76.8208C250.687 77.036 250.418 77.3126 250.278 77.6405C250.138 77.9684 250.068 78.286 250.068 78.6036C250.068 79.1672 250.258 79.5975 250.647 79.8946C251.027 80.202 251.567 80.3454 252.246 80.3454C252.766 80.3454 253.236 80.2327 253.675 79.9971C254.115 79.7614 254.465 79.4541 254.745 79.075C255.014 78.6959 255.154 78.2963 255.154 77.866ZM262.299 83.8496L261.369 85.3456L261.359 85.3661C261.749 85.653 262.249 85.9193 262.868 86.1652C263.488 86.4009 264.327 86.5238 265.377 86.5238C266.926 86.5238 268.145 86.1037 269.014 85.2533C269.884 84.4029 270.324 83.2247 270.324 81.7083V71.616C269.884 71.4316 269.294 71.2676 268.565 71.114C267.835 70.9603 267.056 70.8886 266.226 70.8886C265.077 70.8886 264.058 71.1344 263.188 71.616C262.319 72.0976 261.639 72.7636 261.149 73.6242C260.66 74.4746 260.42 75.448 260.42 76.5443C260.42 77.5484 260.6 78.4398 260.96 79.239C261.319 80.0381 261.859 80.6632 262.559 81.114C263.258 81.5751 264.108 81.8004 265.117 81.8004C265.736 81.8004 266.256 81.7083 266.676 81.5238C267.096 81.3394 267.435 81.1447 267.705 80.9193C267.975 80.7041 268.175 80.53 268.305 80.407V81.698C268.305 82.6099 268.065 83.3373 267.575 83.9008C267.086 84.4644 266.346 84.741 265.357 84.741C264.647 84.741 264.048 84.6488 263.548 84.4746C263.058 84.3004 262.639 84.0955 262.299 83.8496ZM268.325 72.9992V77.3845V77.3947C268.325 77.8353 268.225 78.2553 268.015 78.6549C267.805 79.0545 267.485 79.3824 267.056 79.6386C266.626 79.8947 266.116 80.0279 265.417 80.0279C264.717 80.0279 264.148 79.864 263.708 79.5463C263.258 79.2287 262.938 78.8086 262.738 78.2758C262.539 77.7431 262.439 77.1591 262.439 76.5238C262.439 75.7656 262.599 75.0996 262.918 74.5259C263.238 73.9521 263.678 73.5013 264.237 73.1734C264.807 72.8455 265.457 72.6816 266.216 72.6816C266.846 72.6816 267.325 72.7226 267.645 72.8046C267.965 72.8865 268.195 72.9582 268.325 72.9992ZM282.456 78.911L283.585 80.1405C283.435 80.325 283.175 80.5606 282.786 80.8578C282.396 81.1549 281.896 81.4213 281.287 81.6569C280.677 81.8926 279.928 82.0053 279.058 82.0053C277.989 82.0053 277.049 81.7696 276.24 81.2881C275.431 80.8065 274.791 80.1405 274.341 79.2901C273.892 78.4295 273.662 77.4459 273.662 76.3188C273.662 75.2942 273.882 74.3619 274.311 73.5217C274.751 72.6918 275.351 72.0258 276.13 71.534C276.91 71.0422 277.799 70.7963 278.808 70.7963C280.008 70.7963 280.977 71.0934 281.716 71.6877C282.456 72.2819 282.996 73.0401 283.335 73.9827C283.675 74.9254 283.845 75.9295 283.845 77.0053H275.7C275.72 77.6303 275.88 78.1836 276.19 78.6754C276.5 79.1672 276.91 79.5565 277.419 79.8332C277.929 80.1098 278.479 80.2532 279.068 80.2532C279.938 80.2532 280.657 80.0995 281.227 79.8024C281.796 79.5053 282.196 79.2081 282.436 78.911H282.456ZM281.766 75.4787H275.701C275.732 74.9804 275.872 74.5125 276.11 74.0647C276.35 73.6139 276.7 73.245 277.159 72.9581C277.619 72.6713 278.159 72.5278 278.798 72.5278C279.718 72.5278 280.427 72.8147 280.927 73.3885C281.427 73.9623 281.706 74.659 281.766 75.4787ZM287.203 81.6878H289.202V81.6775V76.7698C289.202 76.0833 289.292 75.4276 289.481 74.7923C289.661 74.1571 289.981 73.6345 290.421 73.2349C290.87 72.8353 291.48 72.6304 292.22 72.6304C292.959 72.6304 293.539 72.8661 293.958 73.3272C294.378 73.7882 294.588 74.5157 294.588 75.4993V81.6878H296.587V75.3456C296.587 73.9829 296.257 72.8968 295.607 72.0874C294.968 71.278 293.968 70.8681 292.619 70.8681C291.99 70.8681 291.44 70.9706 290.99 71.1755C290.541 71.3804 290.171 71.6263 289.871 71.903C289.571 72.1898 289.341 72.4562 289.162 72.7124L289.092 71.1243H287.183C287.203 71.4207 287.203 71.6458 287.203 71.7893V71.7903V81.6878ZM308.14 78.9111L308.15 78.9227C307.842 79.3067 307.445 79.6204 306.97 79.8537C306.491 80.0791 305.951 80.2021 305.341 80.2021C304.632 80.2021 304.022 80.0279 303.523 79.6591C303.013 79.2902 302.623 78.8189 302.353 78.2349C302.084 77.6508 301.944 77.0566 301.944 76.3804C301.944 75.7041 302.074 75.0689 302.343 74.4951C302.603 73.9213 302.993 73.4603 303.503 73.1016C304.012 72.743 304.622 72.5688 305.331 72.5688C305.941 72.5688 306.471 72.6816 306.91 72.907C307.35 73.1324 307.73 73.45 308.04 73.8394L309.349 72.5484C308.869 72.0054 308.299 71.575 307.64 71.2574C306.97 70.9398 306.201 70.7758 305.331 70.7758C304.282 70.7758 303.343 71.032 302.523 71.5341C301.704 72.0464 301.064 72.7226 300.605 73.573C300.145 74.4234 299.915 75.3558 299.915 76.3906C299.915 77.4869 300.145 78.45 300.585 79.2902C301.024 80.1303 301.644 80.7963 302.453 81.2779C303.253 81.7594 304.212 82.0054 305.321 82.0054C306.191 82.0054 306.97 81.8414 307.65 81.5136C308.329 81.1959 308.899 80.7656 309.359 80.2328L308.15 78.9227L308.16 78.9111H308.14ZM311.601 85.7079L311.597 85.7143V85.7041C311.598 85.7053 311.6 85.7066 311.601 85.7079ZM312.506 84.2799L311.601 85.7079C311.86 85.952 312.178 86.1454 312.526 86.2881C312.886 86.4315 313.316 86.5033 313.836 86.5033C314.485 86.5033 315.025 86.3291 315.465 85.991C315.904 85.6426 316.264 85.202 316.544 84.6692C316.824 84.1364 317.063 83.573 317.273 82.9889C317.483 82.4049 317.683 81.8823 317.873 81.411L322 71.1139H319.832L316.904 79.0954L313.576 71.1139H311.287L315.904 81.5954L315.634 82.2717C315.315 83.0914 315.035 83.7164 314.795 84.1467C314.555 84.5771 314.195 84.7922 313.726 84.7922C313.446 84.7922 313.206 84.741 313.016 84.6385C312.826 84.5361 312.656 84.4131 312.506 84.2799Z" fill="#232323"/>
</svg>
